<?xml version="1.0" encoding="UTF-8" standalone="no"?>
<!-- Created with Inkscape (http://www.inkscape.org/) -->

<svg
   xmlns:dc="http://purl.org/dc/elements/1.1/"
   xmlns:cc="http://creativecommons.org/ns#"
   xmlns:rdf="http://www.w3.org/1999/02/22-rdf-syntax-ns#"
   xmlns:svg="http://www.w3.org/2000/svg"
   xmlns="http://www.w3.org/2000/svg"
   xmlns:sodipodi="http://sodipodi.sourceforge.net/DTD/sodipodi-0.dtd"
   xmlns:inkscape="http://www.inkscape.org/namespaces/inkscape"
   width="174.22861mm"
   height="39.118061mm"
   viewBox="0 0 174.22861 39.11806"
   version="1.1"
   id="svg4532"
   inkscape:version="0.92.1 r15371"
   sodipodi:docname="name.svg">
  <defs
     id="defs4526" />
  <sodipodi:namedview
     id="base"
     pagecolor="#ffffff"
     bordercolor="#666666"
     borderopacity="1.0"
     inkscape:pageopacity="0.0"
     inkscape:pageshadow="2"
     inkscape:zoom="0.24748737"
     inkscape:cx="1466.7231"
     inkscape:cy="113.31616"
     inkscape:document-units="mm"
     inkscape:current-layer="layer1"
     showgrid="false"
     inkscape:window-width="1049"
     inkscape:window-height="1041"
     inkscape:window-x="32"
     inkscape:window-y="0"
     inkscape:window-maximized="0" />
  <metadata
     id="metadata4529">
    <rdf:RDF>
      <cc:Work
         rdf:about="">
        <dc:format>image/svg+xml</dc:format>
        <dc:type
           rdf:resource="http://purl.org/dc/dcmitype/StillImage" />
        <dc:title></dc:title>
      </cc:Work>
    </rdf:RDF>
  </metadata>
  <g
     inkscape:label="Layer 1"
     inkscape:groupmode="layer"
     id="layer1"
     transform="translate(-45.832671,-180.96024)">
    <g
       transform="matrix(3.0196074,0,0,3.8152967,-205.21186,152.70646)"
       id="g5222"
       inkscape:transform-center-x="-351.87337"
       inkscape:transform-center-y="571.03905"
       style="stroke-width:0.2946189">
      <g
         inkscape:export-ydpi="96"
         inkscape:export-xdpi="96"
         style="stroke-width:0.49478427"
         transform="matrix(0.6066221,0,0,0.58448203,24.002848,-26.119285)"
         id="g5571">
        <g
           style="stroke:none;stroke-width:0.48048434"
           transform="matrix(1.0604089,0,0,1,-10.416518,19.777945)"
           id="g5557">
          <path
             inkscape:connector-curvature="0"
             id="path5553"
             d="m 135.36668,51.046383 c -0.47379,-0.226798 -0.62799,-0.596966 -0.49345,-1.184505 0.37046,-1.617782 2.37288,-8.163559 2.49731,-8.163559 0.0474,0 0.22931,0.0438 0.40416,0.0973 l 0.31792,0.09729 -0.0593,0.865591 c -0.0857,1.250735 -0.0853,1.338195 0.006,1.3705 0.0453,0.01604 0.26189,-0.399862 0.4813,-0.924293 0.21942,-0.524431 0.43503,-0.966874 0.47916,-0.983213 0.0441,-0.0163 0.24265,0.02073 0.4412,0.08239 0.27931,0.08676 0.35529,0.146796 0.33585,0.265441 -0.0462,0.282093 -0.90962,3.41031 -1.4673,5.316055 -0.66619,2.276495 -0.89849,2.800917 -1.35745,3.064433 -0.46706,0.268165 -1.14092,0.309211 -1.58516,0.09656 z"
             style="opacity:1;fill:#6c6675;fill-opacity:1;fill-rule:nonzero;stroke:none;stroke-width:0.08648717;stroke-linecap:square;stroke-linejoin:miter;stroke-miterlimit:4;stroke-dasharray:none;stroke-opacity:1;paint-order:markers fill stroke" />
          <path
             inkscape:connector-curvature="0"
             id="path5555"
             d="m 138.17752,43.221165 c 0.0264,-0.169014 0.0716,-0.56742 0.10052,-0.885346 l 0.0525,-0.578034 -0.48153,-0.148947 -0.48154,-0.148938 -0.13983,-1.096741 -0.13982,-1.096742 -0.65212,-0.194944 c -0.35867,-0.107216 -0.77802,-0.228142 -0.93191,-0.268729 -0.38967,-0.102775 -0.47958,-0.38544 -0.27481,-0.864003 l 0.15351,-0.358755 3.93066,1.253146 c 2.16185,0.689239 3.9866,1.253242 4.05499,1.253337 0.32147,4.6e-4 0.39924,0.360143 0.1922,0.888763 l -0.12465,0.318256 -1.04909,-0.334751 -1.0491,-0.334742 -0.75507,0.802023 -0.75507,0.802013 -0.41754,-0.134646 c -0.22965,-0.07406 -0.45774,-0.147134 -0.50687,-0.162397 -0.0492,-0.01535 -0.22452,0.336936 -0.39057,0.784868 -0.16569,0.446936 -0.31962,0.812612 -0.34207,0.812612 -0.0225,0 -0.0192,-0.13828 0.007,-0.307303 z m 1.93303,-2.498488 c 0.2164,-0.276993 0.27207,-0.399159 0.19418,-0.426096 -0.42821,-0.148114 -2.21222,-0.701614 -2.2614,-0.701614 -0.0336,0 -0.0504,0.244559 -0.0374,0.543458 l 0.0237,0.543458 0.84228,0.265311 c 0.46326,0.145929 0.86319,0.242478 0.88874,0.214561 0.0255,-0.02792 0.18299,-0.225497 0.34985,-0.439078 z"
             style="opacity:1;fill:#04a3e7;fill-opacity:1;fill-rule:nonzero;stroke:none;stroke-width:0;stroke-linecap:square;stroke-linejoin:miter;stroke-miterlimit:4;stroke-dasharray:none;stroke-opacity:1;paint-order:markers fill stroke" />
        </g>
        <path
           inkscape:connector-curvature="0"
           id="path5559"
           d="m 150.40228,70.70621 c -0.44621,-0.163116 -0.80504,-0.656344 -1.21204,-1.665999 -0.23559,-0.584451 -0.47005,-1.013786 -0.52101,-0.954072 -0.051,0.05971 -0.20313,0.486312 -0.33813,0.947997 -0.13502,0.461685 -0.39392,0.987872 -0.57536,1.169302 -0.29101,0.291018 -0.4458,0.329877 -1.31391,0.329877 h -0.98404 v -0.610547 c 0,-1.270145 2.79508,-11.019073 3.27295,-11.415667 0.23389,-0.194109 1.4817,-0.200107 1.98295,-0.0095 0.51097,0.19427 0.47333,0.607996 -0.31054,3.41318 -0.36702,1.313416 -0.63317,2.422158 -0.59146,2.463872 0.0417,0.04171 0.53744,-0.423294 1.10162,-1.033349 l 1.02577,-1.109194 1.51663,0.04135 1.51663,0.04135 -1.58345,1.784035 c -0.8709,0.981218 -1.67165,1.926876 -1.77945,2.101461 -0.18015,0.291756 -0.15043,0.451194 0.3675,1.971304 0.30992,0.909633 0.56349,1.725676 0.56349,1.813431 0,0.08775 -0.1476,0.307157 -0.32801,0.487563 -0.26142,0.261425 -0.45811,0.325872 -0.96885,0.317463 -0.35246,-0.0058 -0.73105,-0.04352 -0.84129,-0.08382 z"
           style="opacity:1;fill:#6c6675;fill-opacity:1;fill-rule:nonzero;stroke:none;stroke-width:0;stroke-linecap:square;stroke-linejoin:miter;stroke-miterlimit:4;stroke-dasharray:none;stroke-opacity:1;paint-order:markers fill stroke" />
        <path
           inkscape:connector-curvature="0"
           id="path5561"
           d="m 139.56631,70.672867 c -1.7308,-0.524518 -2.18221,-2.781879 -1.0377,-5.18918 0.52077,-1.095364 1.79463,-2.454902 2.72812,-2.911618 0.63376,-0.31007 0.84921,-0.346837 1.78375,-0.304398 1.1832,0.05373 1.6188,0.272907 2.06843,1.040742 0.60676,1.036155 0.36298,3.251141 -0.39586,3.596893 -0.19829,0.09034 -1.04913,0.153506 -2.06788,0.153506 h -1.73096 v 0.575816 c 0,1.053039 0.10241,1.10018 2.29489,1.056309 l 1.9146,-0.03831 -0.66817,0.608021 c -0.3675,0.334412 -0.91144,0.756068 -1.20877,0.937016 -0.78519,0.477848 -2.80933,0.739199 -3.68045,0.475205 z m 3.27131,-5.429054 c 0.0446,-0.11626 0.0811,-0.412885 0.0811,-0.659167 0,-0.507751 -0.39663,-0.746612 -0.75117,-0.452369 -0.18653,0.154803 -0.71881,1.081014 -0.71881,1.250778 0,0.03968 0.29424,0.07214 0.65387,0.07214 0.47298,0 0.67632,-0.05848 0.735,-0.211384 z"
           style="opacity:1;fill:#6c6675;fill-opacity:1;fill-rule:nonzero;stroke:none;stroke-width:0;stroke-linecap:square;stroke-linejoin:miter;stroke-miterlimit:4;stroke-dasharray:none;stroke-opacity:1;paint-order:markers fill stroke" />
        <path
           inkscape:connector-curvature="0"
           id="path5563"
           d="m 127.98137,70.592556 c -0.42336,-0.296535 -0.38622,-0.799426 0.23754,-3.215939 0.29399,-1.138989 0.53454,-2.247734 0.53454,-2.463877 0,-0.356116 -0.0417,-0.392988 -0.44443,-0.392988 -0.79999,0 -1.33464,0.891378 -2.22106,3.702986 -0.66086,2.096146 -0.94585,2.444213 -2.00127,2.444213 -0.71661,0 -1.08016,-0.273807 -1.0786,-0.812331 0.001,-0.41057 0.37367,-1.981177 1.15428,-4.867146 0.41656,-1.540055 0.70012,-2.347116 0.88033,-2.505652 0.21059,-0.185248 0.51278,-0.233859 1.45376,-0.233859 1.09882,0 1.18791,0.02003 1.18791,0.267268 0,0.146998 0.015,0.266991 0.0334,0.26665 0.0184,-2.64e-4 0.39422,-0.149251 0.83521,-0.330914 1.33899,-0.551582 2.47702,-0.35586 3.03104,0.52129 0.37166,0.588444 0.25842,1.699641 -0.42211,4.141949 -0.68729,2.466559 -1.05668,3.236822 -1.67643,3.495772 -0.5936,0.248024 -1.13408,0.241763 -1.50412,-0.01744 z"
           style="opacity:1;fill:#6c6675;fill-opacity:1;fill-rule:nonzero;stroke:none;stroke-width:0;stroke-linecap:square;stroke-linejoin:miter;stroke-miterlimit:4;stroke-dasharray:none;stroke-opacity:1;paint-order:markers fill stroke" />
        <path
           inkscape:connector-curvature="0"
           id="path5565"
           d="m 113.85035,70.038944 c 0.087,-0.699098 1.73363,-6.658144 2.7531,-9.963398 0.4549,-1.474849 0.60887,-1.636829 1.69073,-1.778725 0.54022,-0.07086 0.77575,-0.04158 1.03567,0.128725 0.43573,0.285504 0.4288,0.532198 -0.0705,2.510091 -0.22383,0.886606 -0.38562,1.633355 -0.35953,1.659448 0.0261,0.02609 0.3746,-0.07726 0.77447,-0.229677 0.52571,-0.200382 0.92738,-0.260709 1.45062,-0.217868 0.62518,0.05119 0.78423,0.125394 1.16931,0.545592 0.40813,0.445355 0.4457,0.558469 0.4457,1.341988 0,0.883377 -0.28287,2.028507 -1.15039,4.657129 -0.36229,1.09773 -0.56682,1.511988 -0.87424,1.770661 -0.6696,0.563433 -1.89667,0.399708 -2.06618,-0.275683 -0.0933,-0.371811 -0.0678,-0.502306 0.58578,-2.994779 0.22164,-0.84524 0.44474,-1.792377 0.49577,-2.104747 l 0.0928,-0.567949 h -0.50557 c -0.95993,0 -1.29916,0.578215 -2.32771,3.967652 -0.60628,1.997911 -0.65095,2.037754 -2.51844,2.246471 l -0.71782,0.08023 z"
           style="opacity:1;fill:#6c6675;fill-opacity:1;fill-rule:nonzero;stroke:none;stroke-width:0;stroke-linecap:square;stroke-linejoin:miter;stroke-miterlimit:4;stroke-dasharray:none;stroke-opacity:1;paint-order:markers fill stroke" />
        <path
           inkscape:connector-curvature="0"
           id="path5567"
           d="m 107.26081,70.743466 c -1.16239,-0.378277 -1.75981,-1.370076 -1.75981,-2.921511 0,-0.888555 0.0559,-1.097608 0.58214,-2.176007 0.77541,-1.589098 1.57574,-2.459233 2.83383,-3.08102 0.84079,-0.415539 1.12559,-0.489521 1.89383,-0.491956 1.89704,-0.006 2.97555,1.019493 2.97555,2.829317 0,2.172838 -1.58949,4.689427 -3.51791,5.569789 -0.88428,0.403688 -2.22841,0.524973 -3.00763,0.271388 z m 2.11934,-2.083041 c 0.71439,-0.382331 1.46624,-2.132716 1.46624,-3.413574 0,-0.941351 -0.24106,-1.149168 -0.9139,-0.787871 -0.71316,0.38295 -1.36927,1.725549 -1.4595,2.98659 -0.0882,1.232786 0.18643,1.600575 0.90716,1.214855 z"
           style="opacity:1;fill:#6c6675;fill-opacity:1;fill-rule:nonzero;stroke:none;stroke-width:0;stroke-linecap:square;stroke-linejoin:miter;stroke-miterlimit:4;stroke-dasharray:none;stroke-opacity:1;paint-order:markers fill stroke" />
        <path
           inkscape:connector-curvature="0"
           id="path5569"
           d="m 97.482911,74.558043 c 0,-0.949854 0.266456,-1.820177 0.669641,-2.187249 0.22201,-0.202121 0.511636,-0.367496 0.643615,-0.367496 0.686266,0 0.84518,-0.39829 2.692623,-6.748555 1.7981,-6.180696 1.8384,-6.300208 2.22732,-6.606132 0.28051,-0.220647 0.54314,-0.276059 1.30846,-0.276059 1.00921,0 1.27823,0.125458 1.27823,0.596075 0,0.307835 -2.98548,10.534695 -3.53131,12.096612 -0.84018,2.404253 -2.17288,3.491047 -4.653815,3.795115 -0.626721,0.07681 -0.634764,0.07298 -0.634764,-0.302311 z"
           style="opacity:1;fill:#6c6675;fill-opacity:1;fill-rule:nonzero;stroke:none;stroke-width:0;stroke-linecap:square;stroke-linejoin:miter;stroke-miterlimit:4;stroke-dasharray:none;stroke-opacity:1;paint-order:markers fill stroke" />
      </g>
      <text
         inkscape:export-ydpi="96"
         inkscape:export-xdpi="96"
         transform="scale(0.98195366,1.018378)"
         id="text5599"
         y="15.155148"
         x="120.6404"
         style="font-style:normal;font-variant:normal;font-weight:normal;font-stretch:normal;font-size:9.04866123px;line-height:1;font-family:'Times New Roman';-inkscape-font-specification:'Times New Roman, ';text-align:start;letter-spacing:0px;word-spacing:0px;text-anchor:start;fill:#6c6675;fill-opacity:1;stroke:none;stroke-width:0.078074;stroke-miterlimit:4;stroke-dasharray:none;stroke-opacity:1"
         xml:space="preserve"><tspan
           style="font-style:normal;font-variant:normal;font-weight:normal;font-stretch:normal;font-size:9.04866123px;font-family:'Times New Roman';-inkscape-font-specification:'Times New Roman, ';text-align:start;text-anchor:start;fill:#6c6675;fill-opacity:1;stroke:none;stroke-width:0.078074;stroke-miterlimit:4;stroke-dasharray:none;stroke-opacity:1"
           y="15.155148"
           x="120.6404"
           id="tspan5597"
           sodipodi:role="line">valves</tspan></text>
    </g>
  </g>
</svg>
